<svg width="1440" height="708" viewBox="0 0 1440 708" fill="none" xmlns="http://www.w3.org/2000/svg">
<g clip-path="url(#clip0_244_1409)">
<rect width="1440" height="708" fill="url(#paint0_linear_244_1409)"/>
<g opacity="0.1">
<path d="M367.003 501.568C377.806 507.805 388.088 514.073 397.791 520.343C451.072 554.758 485.42 587.934 499.881 618.949C514.679 650.677 508.078 679.399 480.262 704.324C395.817 779.986 332.429 820.501 290.487 847.308C271.609 859.374 256.696 868.906 246.685 877.384C230.026 891.495 188.938 899.275 139.455 897.694C86.2045 895.989 35.0345 884.033 -0.93697 864.883C-50.5473 838.473 -111.477 821.955 -153.854 812.752C-203.218 802.029 -256.72 794.982 -296.97 793.902C-322.954 793.206 -343.43 781.871 -356.181 761.127C-378.257 725.207 -374.374 665.781 -346.048 606.042C-332.621 577.73 -318.736 548.448 -303.662 521.162C-286.996 490.991 -270.614 466.581 -253.587 446.533C-233.251 422.6 -211.485 404.087 -187.049 389.941C-159.764 374.149 -129.771 364.103 -95.3543 359.229C-36.5753 350.904 94.8847 381.369 224.329 433.309C277.281 454.559 325.912 477.85 367.001 501.572L367.003 501.568ZM-331.856 783.243C-321.867 789.01 -310.125 792.156 -296.931 792.509C-256.595 793.59 -202.999 800.649 -153.559 811.389C-111.098 820.614 -50.0338 837.167 -0.280793 863.654C35.508 882.703 86.457 894.607 139.505 896.302C188.656 897.873 229.385 890.217 245.792 876.318C255.878 867.776 270.823 858.226 289.744 846.131C331.652 819.347 394.976 778.87 479.339 703.284C506.644 678.817 513.134 650.64 498.627 619.528C484.276 588.758 450.099 555.777 397.042 521.502C350.512 491.443 290.612 461.39 223.819 434.59C94.5754 382.729 -36.5903 352.301 -95.1537 360.595C-129.391 365.445 -159.216 375.432 -186.348 391.136C-210.647 405.201 -232.295 423.611 -252.524 447.425C-290.48 492.099 -318.087 550.324 -344.789 606.63C-372.919 665.947 -376.831 724.866 -354.992 760.392C-348.964 770.203 -341.168 777.861 -331.853 783.239L-331.856 783.243Z" fill="white"/>
<path d="M348.633 517.941C357.178 522.874 365.355 527.825 373.134 532.78C422.187 564.034 453.856 594.183 467.267 622.396C480.821 650.917 475.165 676.771 450.455 699.242C376.323 767.663 317.239 807.363 278.148 833.63C259.795 845.962 245.301 855.704 235.227 864.327C218.938 878.262 180.355 886.324 134.53 885.37C85.462 884.349 37.6589 873.561 3.37512 855.776C-42.5129 831.633 -98.4633 816.131 -137.314 807.376C-182.959 797.092 -230.621 790.237 -268.087 788.575C-291.73 787.521 -310.344 776.812 -321.921 757.6C-342.019 724.255 -338.43 669.589 -312.546 614.931C-288.177 563.342 -262.979 509.992 -227.37 468.188C-208.615 446.168 -188.542 429.107 -166.008 416.032C-140.873 401.446 -113.267 392.116 -81.6237 387.5C-27.3215 379.4 93.9989 406.666 213.403 453.798C263.785 473.686 309.957 495.605 348.64 517.939L348.633 517.941ZM-298.953 778.714C-290.055 783.851 -279.667 786.75 -268.034 787.27C-230.496 788.936 -182.747 795.798 -137.033 806.101C-98.1022 814.875 -42.0376 830.412 3.97529 854.616C38.0861 872.312 85.6786 883.047 134.552 884.063C180.07 885.011 218.319 877.066 234.374 863.333C244.505 854.657 259.029 844.9 277.412 832.543C316.475 806.297 375.501 766.633 449.565 698.274C473.803 676.23 479.36 650.891 466.08 622.951C452.778 594.966 421.267 564.999 372.425 533.878C329.506 506.529 274.345 479.259 212.912 455.01C93.7002 407.952 -27.3401 380.72 -81.4435 388.79C-112.925 393.377 -140.375 402.658 -165.363 417.158C-187.769 430.157 -207.728 447.123 -226.387 469.033C-261.885 510.709 -287.047 563.978 -311.379 615.493C-337.076 669.762 -340.69 723.953 -320.813 756.931C-315.163 766.305 -307.793 773.615 -298.955 778.718L-298.953 778.714Z" fill="white"/>
<path d="M330.214 534.23C336.541 537.883 342.634 541.545 348.488 545.213C393.317 573.301 422.308 600.43 434.66 625.836C446.971 651.15 442.253 674.137 420.637 694.158C356.336 755.776 303.569 793.155 265.043 820.444C247.558 832.829 233.75 842.613 223.753 851.271C207.588 865.24 172.387 873.379 129.589 873.045C84.6929 872.697 40.2566 863.078 7.67254 846.665C-68.7528 807.017 -181.844 787.019 -239.214 783.246C-260.517 781.833 -277.276 771.746 -287.684 754.065C-305.799 723.295 -302.495 673.391 -279.064 623.824C-258.086 579.202 -234.305 528.63 -201.169 489.842C-183.991 469.738 -165.617 454.128 -144.988 442.122C-121.999 428.743 -96.7871 420.125 -67.9099 415.771C-42.9084 411.823 -3.19605 415.557 46.9247 426.572C95.0679 437.15 150.312 454.098 202.474 474.283C250.269 492.78 293.977 513.308 330.21 534.228L330.214 534.23ZM-266.038 774.218C-258.238 778.72 -249.206 781.366 -239.133 782.032C-181.664 785.809 -68.3576 805.851 8.22879 845.581C40.6478 861.91 84.8879 871.479 129.602 871.829C172.108 872.16 207.009 864.131 222.958 850.352C232.998 841.656 246.83 831.858 264.343 819.452C302.837 792.182 355.56 754.832 419.807 693.273C440.988 673.652 445.615 651.146 433.567 626.37C421.314 601.17 392.474 574.214 347.841 546.25C308.528 521.619 258.106 497.123 202.038 475.426C149.929 455.261 94.7525 438.335 46.6666 427.769C-3.30269 416.788 -42.8555 413.056 -67.7168 416.983C-96.4452 421.31 -121.517 429.881 -144.364 443.181C-164.873 455.118 -183.149 470.641 -200.234 490.639C-233.264 529.301 -257.008 579.798 -277.95 624.349C-301.211 673.555 -304.537 723.025 -286.625 753.453C-281.349 762.418 -274.402 769.388 -266.034 774.22L-266.038 774.218Z" fill="white"/>
<path d="M311.737 550.417C315.903 552.822 319.947 555.227 323.878 557.641C364.481 582.567 390.795 606.665 402.093 629.268C413.144 651.381 409.355 671.501 390.832 689.072C335.787 744.474 286.653 781.284 250.777 808.159C235.317 819.741 221.967 829.742 212.29 838.215C196.485 852.013 163.724 860.428 124.663 860.725C83.9271 861.031 42.8532 852.59 11.9785 837.559C-18.4279 822.05 -58.6155 807.897 -104.251 796.624C-140.88 787.576 -179.545 780.761 -210.337 777.92C-229.304 776.157 -244.215 766.683 -253.45 750.518C-269.564 722.319 -266.542 677.182 -245.564 632.716C-223.704 585.955 -203.299 544.556 -174.952 511.497C-159.354 493.306 -142.668 479.146 -123.944 468.209C-103.108 456.039 -80.2841 448.131 -54.1727 444.039C-31.2674 440.185 4.92406 443.211 50.4887 452.792C94.0787 461.959 144.189 476.862 191.593 494.759C236.792 511.827 278.013 530.93 311.752 550.41L311.737 550.417ZM-233.11 769.766C-226.418 773.63 -218.747 776.003 -210.232 776.794C-179.389 779.638 -140.66 786.464 -103.98 795.525C-58.2608 806.819 -17.9878 821 12.4828 836.546C43.1964 851.496 84.0839 859.899 124.649 859.59C163.447 859.296 195.935 850.985 211.538 837.359C221.248 828.857 234.615 818.844 250.093 807.251C285.94 780.398 335.035 743.618 390.035 688.259C408.166 671.06 411.879 651.387 401.073 629.774C389.87 607.36 363.696 583.418 323.28 558.604C287.565 536.685 241.888 514.973 191.174 495.827C143.824 477.949 93.7745 463.06 50.2395 453.909C4.81429 444.355 -31.2302 441.334 -54.0056 445.167C-79.9809 449.236 -102.671 457.098 -123.385 469.194C-141.997 480.068 -158.59 494.148 -174.103 512.238C-202.353 545.187 -222.721 586.512 -244.549 633.2C-265.371 677.34 -268.409 722.078 -252.475 749.959C-247.574 758.536 -241.036 765.196 -233.12 769.766L-233.11 769.766Z" fill="white"/>
<path d="M293.194 566.459C295.267 567.656 297.303 568.852 299.309 570.053C335.687 591.815 359.325 612.888 369.567 632.69C379.351 651.609 376.481 668.868 361.025 683.989C314.591 733.978 268.398 770.675 234.67 797.47C221.297 808.094 209.745 817.269 200.83 825.162C185.139 839.004 155.581 847.474 119.736 848.403C83.1374 849.352 45.4343 842.082 16.2908 828.451C-40.6459 800.007 -126.126 779.561 -181.455 772.596C-198.108 770.482 -211.172 761.614 -219.234 746.954C-233.326 721.328 -230.584 680.965 -212.073 641.614C-193.537 601.684 -174.743 563.345 -148.746 533.16C-134.731 516.887 -119.736 504.176 -102.918 494.307C-84.2317 483.343 -63.8007 476.153 -40.4568 472.317C-19.6476 468.556 13.0356 470.871 54.0465 479.013C93.0855 486.766 138.071 499.629 180.714 515.232C223.303 530.819 262.013 548.457 293.196 566.455L293.194 566.459ZM-200.163 765.374C-194.598 768.587 -188.284 770.672 -181.331 771.556C-125.917 778.533 -40.2922 799.014 16.7391 827.508C45.7272 841.065 83.2583 848.3 119.701 847.352C155.307 846.429 184.62 838.052 200.127 824.371C209.061 816.462 220.624 807.278 234.008 796.644C267.712 769.873 313.868 733.202 360.269 683.253C375.373 668.474 378.178 651.631 368.628 633.168C358.478 613.542 334.972 592.609 298.764 570.951C266.649 551.753 225.706 532.815 180.346 516.221C137.755 500.638 92.8275 487.787 53.8356 480.046C12.9498 471.927 -19.5945 469.612 -40.2841 473.351C-63.5062 477.162 -83.8188 484.313 -102.391 495.21C-119.11 505.018 -134.016 517.657 -147.957 533.84C-173.869 563.924 -192.623 602.195 -211.128 642.052C-229.5 681.105 -232.258 721.1 -218.321 746.439C-213.794 754.673 -207.653 761.039 -200.163 765.364L-200.163 765.374Z" fill="white"/>
<path d="M274.552 582.31L274.781 582.442C306.936 601.034 327.9 619.083 337.087 636.081C345.597 651.817 343.619 666.226 331.21 678.902C292.783 724.523 248.229 762.086 215.697 789.513C205.509 798.103 196.71 805.518 189.352 812.103C174 825.794 146.821 834.531 114.795 836.079C82.3076 837.649 47.965 831.55 20.5825 819.342C-4.16339 807.298 -35.0374 796.044 -71.1944 785.874C-98.3929 778.227 -128.059 771.446 -152.595 767.271C-166.943 764.804 -178.165 756.535 -185.056 743.347C-197.107 720.289 -194.629 684.715 -178.589 650.507C-163.203 617.06 -146.197 582.123 -122.545 554.815C-110.107 540.457 -96.8121 529.201 -81.8907 520.395C-65.3571 510.64 -47.3142 504.16 -26.7384 500.59C10.3646 493.314 89.3848 507.418 169.878 535.686C209.833 549.715 246.018 565.836 274.552 582.31ZM-167.181 761.077C-162.758 763.63 -157.815 765.394 -152.426 766.321C-127.862 770.503 -98.1525 777.292 -70.9277 784.949C-34.7196 795.132 -3.79112 806.413 20.9932 818.473C48.2284 830.613 82.4046 836.685 114.751 835.119C146.563 833.581 173.521 824.93 188.713 811.387C196.079 804.795 204.883 797.372 215.077 788.781C247.584 761.378 292.1 723.845 330.496 678.26C342.598 665.892 344.52 651.868 336.236 636.545C327.132 619.708 306.294 601.785 274.295 583.283L274.067 583.151C245.585 566.707 209.458 550.615 169.556 536.605C89.2086 508.39 10.3967 494.305 -26.5655 501.55C-47.0344 505.102 -64.9693 511.542 -81.4039 521.237C-96.2285 529.986 -109.449 541.179 -121.818 555.454C-145.387 582.665 -162.354 617.534 -177.716 650.921C-193.63 684.864 -196.117 720.112 -184.202 742.905C-180.049 750.853 -174.284 756.981 -167.191 761.076L-167.181 761.077Z" fill="white"/>
<path d="M255.921 597.949C280.718 612.265 297.115 626.203 304.699 639.423C311.908 651.994 310.81 663.555 301.427 673.796C270.754 716.377 225.444 756.683 192.357 786.118C187.166 790.739 182.264 795.099 177.893 799.05C162.632 812.804 138.475 821.577 109.869 823.758C81.0251 825.952 50.8463 821.152 24.8923 810.238C7.35299 801.992 -42.2012 780.791 -123.718 761.944C-135.782 759.124 -145.183 751.432 -150.896 739.687C-160.863 719.205 -158.639 688.442 -145.094 659.407C-132.67 632.081 -117.632 600.885 -96.3324 576.477C-73.8241 550.678 -46.5713 535.108 -13.0124 528.868C3.63203 525.283 29.3137 526.168 61.243 531.418C91.6523 536.421 125.49 544.958 159.098 556.108C193.804 567.625 225.352 580.999 250.329 594.79C252.239 595.844 254.105 596.9 255.925 597.951L255.921 597.949ZM-134.159 756.915C-130.911 758.79 -127.35 760.189 -123.521 761.085C-110.479 764.101 -84.1554 770.522 -54.4016 779.661C-23.1607 789.252 3.63306 799.267 25.2453 809.432C51.0577 820.285 81.0884 825.064 109.795 822.877C138.205 820.711 162.177 812.018 177.293 798.394C181.664 794.443 186.569 790.079 191.762 785.454C224.825 756.043 270.102 715.765 300.719 673.253L300.753 673.214C309.863 663.287 310.931 652.065 303.928 639.859C295.982 626.008 277.299 610.686 249.896 595.559C224.962 581.794 193.471 568.442 158.814 556.943C125.251 545.808 91.4558 537.28 61.0919 532.282C29.2716 527.046 3.70591 526.164 -12.8436 529.724C-46.2094 535.926 -73.2994 551.409 -95.6715 577.046C-116.893 601.365 -131.898 632.495 -144.294 659.762C-157.734 688.569 -159.959 719.038 -150.105 739.289C-146.331 747.051 -140.911 753.006 -134.162 756.902L-134.159 756.915Z" fill="white"/>
<path d="M236.683 612.905C254.291 623.071 266.548 633.251 272.432 642.664C278.341 652.117 278.072 660.872 271.632 668.693C249.485 710.043 191.282 763.264 166.427 785.998C135.319 814.348 78.8863 820.572 29.198 801.131C-9.2566 783.865 -57.4699 768.519 -86.2739 759.347C-89.3309 758.372 -92.2027 757.457 -94.8526 756.611C-104.67 753.437 -112.259 746.273 -116.792 735.91C-124.621 718.013 -122.631 692.11 -111.601 668.301C-100.704 643.934 -88.1351 618.572 -70.1217 598.132C-50.9003 576.323 -27.7336 562.913 0.711907 557.14C29.3646 550.258 87.3245 557.844 148.367 576.473C177.716 585.431 204.545 596.006 225.953 607.052C229.722 608.998 233.305 610.95 236.69 612.904L236.683 612.905ZM-101.064 752.987C-99.0387 754.156 -96.8849 755.112 -94.6061 755.85C-91.9585 756.7 -89.0907 757.614 -86.0314 758.584C-57.213 767.759 -8.97099 783.111 29.5076 800.391C78.9081 819.719 134.994 813.557 165.888 785.404C190.723 762.695 248.882 709.513 270.947 668.276L270.986 668.208C277.212 660.675 277.472 652.224 271.756 643.085C264.815 631.984 248.847 619.767 225.584 607.758C204.218 596.731 177.434 586.171 148.133 577.23C87.2207 558.644 29.4245 551.061 0.885546 557.913C-62.2785 570.731 -88.9554 619.632 -110.871 668.62C-121.811 692.236 -123.797 717.891 -116.057 735.581C-112.672 743.321 -107.555 749.229 -101.063 752.977L-101.064 752.987Z" fill="white"/>
<path d="M217.395 627.219C228.158 633.433 236.047 639.697 240.345 645.661C244.97 652.087 245.475 658.111 241.846 663.564C238.93 676.614 227.406 695.084 207.597 718.467C193.163 735.503 173.98 755.358 154.959 772.94C124.392 801.111 78.9896 808.243 33.5021 792.019C18.0302 785.517 1.75602 779.043 -13.9833 772.782C-34.3396 764.683 -53.5631 757.03 -65.9914 751.275C-76.4309 746.391 -83.316 735.749 -85.3808 721.314C-87.339 707.63 -84.687 691.554 -78.1139 677.196C-63.625 644.016 -52.227 629.09 -43.9171 619.79C-27.9953 601.973 -8.90677 590.728 14.43 585.413C38.9955 578.693 86.2119 583.014 137.643 596.704C170.497 605.447 198.415 616.255 217.397 627.215L217.395 627.219ZM-67.8778 749.486C-67.1681 749.896 -66.4398 750.274 -65.6914 750.626C-53.2814 756.375 -34.0699 764.021 -13.7216 772.115C2.02173 778.379 18.2976 784.859 33.7575 791.354C78.9709 807.479 124.105 800.406 154.47 772.417C173.471 754.85 192.634 735.021 207.05 718.007C226.819 694.676 238.295 676.279 241.16 663.344L241.176 663.279L241.209 663.223C244.698 658.031 244.215 652.265 239.766 646.08C227.99 629.714 188.786 611.06 137.461 597.4C86.1457 583.74 39.0707 579.415 14.6063 586.108C-8.59369 591.389 -27.5556 602.563 -43.3793 620.266C-59.1321 637.892 -69.8657 660.104 -77.4531 677.487C-83.9797 691.727 -86.6088 707.661 -84.6695 721.212C-82.7872 734.361 -76.8576 744.297 -67.8755 749.482L-67.8778 749.486Z" fill="white"/>
<path d="M197.955 640.248C202.406 642.818 205.93 645.392 208.366 647.904C211.926 651.583 213.171 655.102 212.062 658.366C216.539 669.226 203.847 689.986 192.39 705.515C179.467 723.028 161.188 743.352 143.491 759.892C128.242 774.108 112.411 782.906 95.0848 786.792C77.3909 790.76 58.6574 789.49 37.8056 782.916C7.18051 771.314 -22.2315 756.796 -37.1377 745.925C-44.3753 740.597 -49.0144 731.241 -50.204 719.587C-51.314 708.684 -49.2807 696.476 -44.6188 686.096C-32.9471 658.314 -14.131 624.983 28.1498 613.693C48.4661 607.174 85.242 608.262 126.502 616.613C156.657 622.713 182.722 631.453 197.959 640.251L197.955 640.248ZM-23.3517 753.985C-7.37646 763.209 14.9715 773.59 38.0073 782.317C58.7306 788.854 77.3568 790.115 94.9392 786.174C112.154 782.314 127.891 773.568 143.052 759.43C176.133 728.523 219.216 676.776 211.427 658.502L211.38 658.389L211.42 658.274C212.513 655.224 211.329 651.885 207.906 648.349C197.216 637.305 165.211 625.093 126.367 617.235C85.2078 608.904 48.5508 607.805 28.3167 614.302C-13.7112 625.525 -32.4331 658.702 -44.0491 686.35L-44.0538 686.358C-48.6705 696.642 -50.6866 708.737 -49.5848 719.534C-48.4157 731.01 -43.8644 740.203 -36.7739 745.424C-33.1129 748.093 -28.5731 750.981 -23.3563 753.993L-23.3517 753.985Z" fill="white"/>
<path d="M178.136 649.805C180.057 650.914 181.411 652.022 182.116 653.107C185.588 654.492 187.699 657.031 188.401 660.641C190.454 671.207 180.218 688.685 171.268 701.493C160.621 716.73 145.943 733.679 132.01 746.838C116.241 761.714 103.33 770.232 90.1421 774.462C76.0807 778.972 60.8098 778.761 42.0931 773.805C21.2431 767.237 1.46459 754.183 -8.30106 740.548C-17.0192 728.265 -16.5946 707.741 -11.1444 694.995C-0.680228 668.193 17.1531 650.353 41.849 641.971C51.3936 638.219 64.197 635.952 79.8886 635.231C93.4753 634.608 108.85 635.194 124.36 636.936C148.637 639.66 169.318 644.724 178.127 649.811L178.136 649.805ZM181.754 653.55L181.706 653.474C181.046 652.414 179.733 651.336 177.86 650.255C158.469 639.059 79.0077 627.959 42.0507 642.483C17.501 650.815 -0.215999 668.547 -10.6193 695.196L-10.6239 695.204C-16.0161 707.813 -16.4495 728.103 -7.8404 740.232C1.86016 753.776 21.5293 766.751 42.2612 773.282C60.8614 778.209 76.0284 778.423 89.9903 773.947C103.094 769.743 115.941 761.262 131.648 746.447C145.556 733.312 160.201 716.392 170.832 701.183C179.721 688.462 189.892 671.123 187.878 660.75C187.208 657.308 185.178 654.897 181.842 653.59L181.759 653.558L181.754 653.55Z" fill="white"/>
<path d="M162.628 650.051C164.549 651.16 165.941 652.722 166.787 654.738C168.914 659.786 168.622 670.285 155.175 691.631C146.16 705.94 133.219 721.696 120.557 733.783C105.595 748.067 95.7473 757.104 85.2352 762.125C74.36 767.321 63.1137 768.066 46.4163 764.687C37.215 762.826 30.2636 757.984 25.759 750.303C16.0239 733.689 20.6861 709.093 22.3611 703.896C25.4917 694.186 32.4639 685.406 43.0889 677.801C52.2361 671.254 64.0976 665.554 78.355 660.853C104.122 652.357 133.37 648.666 152.148 648.044C156.568 647.898 160.072 648.57 162.631 650.047L162.628 650.051ZM36.6144 760.588C39.5416 762.278 42.8371 763.497 46.5054 764.236C63.0944 767.591 74.2568 766.861 85.0359 761.711C95.4865 756.713 105.308 747.703 120.237 733.448C143.321 711.412 173.033 670.765 166.364 654.916C164.471 650.415 159.695 648.261 152.168 648.509C133.423 649.13 104.227 652.814 78.5048 661.297C64.2939 665.983 52.471 671.663 43.3646 678.184C32.822 685.73 25.9064 694.43 22.8066 704.041C21.1445 709.198 16.5141 733.608 26.1648 750.073C28.8077 754.58 32.3062 758.095 36.6248 760.588L36.6144 760.588Z" fill="white"/>
</g>
<g opacity="0.1">
<path d="M1766 150.569C1776.81 156.806 1787.09 163.073 1796.79 169.343C1850.07 203.759 1884.42 236.934 1898.88 267.949C1913.68 299.677 1907.08 328.399 1879.26 353.324C1794.82 428.987 1731.43 469.502 1689.49 496.309C1670.61 508.375 1655.7 517.906 1645.68 526.384C1629.03 540.496 1587.94 548.276 1538.45 546.695C1485.2 544.99 1434.03 533.033 1398.06 513.884C1348.45 487.474 1287.52 470.956 1245.15 461.752C1195.78 451.03 1142.28 443.982 1102.03 442.902C1076.05 442.207 1055.57 430.871 1042.82 410.127C1020.74 374.208 1024.63 314.781 1052.95 255.043C1066.38 226.731 1080.26 197.449 1095.34 170.163C1112 139.992 1128.39 115.581 1145.41 95.5339C1165.75 71.6003 1187.52 53.0871 1211.95 38.9413C1239.24 23.1493 1269.23 13.1036 1303.65 8.2298C1362.42 -0.0951754 1493.88 30.3691 1623.33 82.3091C1676.28 103.559 1724.91 126.85 1766 150.573L1766 150.569ZM1067.14 432.243C1077.13 438.01 1088.87 441.157 1102.07 441.51C1142.4 442.59 1196 449.65 1245.44 460.389C1287.9 469.615 1348.97 486.168 1398.72 512.654C1434.51 531.704 1485.46 543.608 1538.5 545.302C1587.66 546.874 1628.38 539.217 1644.79 525.319C1654.88 516.777 1669.82 507.227 1688.74 495.132C1730.65 468.348 1793.98 427.87 1878.34 352.284C1905.64 327.817 1912.13 299.64 1897.63 268.529C1883.28 237.758 1849.1 204.778 1796.04 170.502C1749.51 140.444 1689.61 110.39 1622.82 83.5906C1493.58 31.7291 1362.41 1.30117 1303.85 9.5956C1269.61 14.445 1239.78 24.4324 1212.65 40.1362C1188.35 54.2011 1166.7 72.6116 1146.48 96.4252C1108.52 141.1 1080.91 199.325 1054.21 255.631C1026.08 314.948 1022.17 373.867 1044.01 409.393C1050.04 419.204 1057.83 426.862 1067.15 432.239L1067.14 432.243Z" fill="white"/>
<path d="M1747.63 166.941C1756.18 171.875 1764.35 176.825 1772.13 181.781C1821.19 213.035 1852.86 243.183 1866.27 271.397C1879.82 299.917 1874.16 325.771 1849.45 348.243C1775.32 416.664 1716.24 456.363 1677.15 482.631C1658.8 494.963 1644.3 504.704 1634.23 513.328C1617.94 527.263 1579.35 535.324 1533.53 534.37C1484.46 533.349 1436.66 522.562 1402.37 504.776C1356.49 480.633 1300.54 465.131 1261.69 456.376C1216.04 446.092 1168.38 439.237 1130.91 437.575C1107.27 436.521 1088.66 425.812 1077.08 406.601C1056.98 373.255 1060.57 318.589 1086.45 263.932C1110.82 212.342 1136.02 158.993 1171.63 117.189C1190.38 95.1683 1210.46 78.1077 1232.99 65.033C1258.13 50.4463 1285.73 41.1168 1317.38 36.5006C1371.68 28.4009 1493 55.6661 1612.4 102.798C1662.78 122.687 1708.96 144.606 1747.64 166.939L1747.63 166.941ZM1100.05 427.714C1108.94 432.852 1119.33 435.751 1130.97 436.27C1168.5 437.937 1216.25 444.799 1261.97 455.102C1300.9 463.876 1356.96 479.412 1402.98 503.616C1437.09 521.312 1484.68 532.048 1533.55 533.064C1579.07 534.011 1617.32 526.066 1633.37 512.333C1643.5 503.657 1658.03 493.901 1676.41 481.544C1715.48 455.297 1774.5 415.634 1848.56 347.275C1872.8 325.231 1878.36 299.891 1865.08 271.951C1851.78 243.966 1820.27 213.999 1771.42 182.878C1728.51 155.529 1673.34 128.26 1611.91 104.01C1492.7 56.9521 1371.66 29.7203 1317.56 37.7905C1286.07 42.3771 1258.62 51.658 1233.64 66.1581C1211.23 79.1577 1191.27 96.1236 1172.61 118.034C1137.11 159.71 1111.95 212.978 1087.62 264.493C1061.92 318.762 1058.31 372.954 1078.19 405.932C1083.84 415.305 1091.21 422.616 1100.04 427.718L1100.05 427.714Z" fill="white"/>
<path d="M1729.21 183.23C1735.54 186.884 1741.63 190.545 1747.49 194.213C1792.32 222.302 1821.31 249.43 1833.66 274.837C1845.97 300.15 1841.25 323.138 1819.64 343.159C1755.34 404.777 1702.57 442.156 1664.04 469.445C1646.56 481.829 1632.75 491.614 1622.75 500.271C1606.59 514.24 1571.39 522.379 1528.59 522.046C1483.69 521.697 1439.26 512.079 1406.67 495.665C1330.25 456.017 1217.16 436.02 1159.79 432.246C1138.48 430.834 1121.72 420.747 1111.32 403.065C1093.2 372.296 1096.51 322.391 1119.94 272.824C1140.91 228.203 1164.7 177.631 1197.83 138.843C1215.01 118.739 1233.38 103.128 1254.01 91.1221C1277 77.743 1302.21 69.1253 1331.09 64.7712C1356.09 60.8238 1395.8 64.5577 1445.92 75.5723C1494.07 86.1504 1549.31 103.099 1601.47 123.283C1649.27 141.78 1692.98 162.309 1729.21 183.228L1729.21 183.23ZM1132.96 423.218C1140.76 427.721 1149.79 430.366 1159.87 431.032C1217.34 434.809 1330.64 454.851 1407.23 494.581C1439.65 510.91 1483.89 520.48 1528.6 520.83C1571.11 521.16 1606.01 513.131 1621.96 499.352C1632 490.656 1645.83 480.858 1663.34 468.453C1701.84 441.183 1754.56 403.832 1818.81 342.273C1839.99 322.653 1844.61 300.147 1832.57 275.37C1820.31 250.17 1791.47 223.215 1746.84 195.25C1707.53 170.619 1657.11 146.124 1601.04 124.426C1548.93 104.261 1493.75 87.3359 1445.67 76.7695C1395.7 65.7889 1356.14 62.0563 1331.28 65.9832C1302.55 70.311 1277.48 78.8812 1254.64 92.1818C1234.13 104.118 1215.85 119.641 1198.77 139.64C1165.74 178.301 1141.99 228.799 1121.05 273.35C1097.79 322.556 1094.46 372.026 1112.37 402.453C1117.65 411.419 1124.6 418.389 1132.97 423.22L1132.96 423.218Z" fill="white"/>
<path d="M1710.74 199.417C1714.9 201.823 1718.95 204.227 1722.88 206.641C1763.48 231.568 1789.79 255.665 1801.09 278.268C1812.14 300.381 1808.35 320.502 1789.83 338.072C1734.79 393.474 1685.65 430.285 1649.78 457.159C1634.32 468.741 1620.97 478.743 1611.29 487.216C1595.49 501.014 1562.72 509.429 1523.66 509.725C1482.93 510.032 1441.85 501.591 1410.98 486.559C1380.57 471.05 1340.38 456.897 1294.75 445.625C1258.12 436.577 1219.45 429.761 1188.66 426.92C1169.7 425.158 1154.78 415.684 1145.55 399.518C1129.44 371.32 1132.46 326.183 1153.44 281.717C1175.3 234.955 1195.7 193.556 1224.05 160.497C1239.65 142.306 1256.33 128.147 1275.06 117.209C1295.89 105.04 1318.72 97.1319 1344.83 93.04C1367.73 89.1858 1403.92 92.2118 1449.49 101.793C1493.08 110.96 1543.19 125.863 1590.59 143.76C1635.79 160.827 1677.01 179.931 1710.75 199.41L1710.74 199.417ZM1165.89 418.767C1172.58 422.631 1180.25 425.003 1188.77 425.795C1219.61 428.639 1258.34 435.465 1295.02 444.526C1340.74 455.82 1381.01 470.001 1411.48 485.547C1442.2 500.496 1483.08 508.899 1523.65 508.59C1562.45 508.297 1594.93 499.986 1610.54 486.36C1620.25 477.858 1633.62 467.845 1649.09 456.251C1684.94 429.398 1734.04 392.618 1789.03 337.259C1807.17 320.061 1810.88 300.388 1800.07 278.774C1788.87 256.36 1762.7 232.418 1722.28 207.604C1686.56 185.686 1640.89 163.973 1590.17 144.827C1542.82 126.95 1492.77 112.061 1449.24 102.909C1403.81 93.3557 1367.77 90.3345 1344.99 94.1675C1319.02 98.2364 1296.33 106.098 1275.62 118.195C1257 129.068 1240.41 143.148 1224.9 161.239C1196.65 194.187 1176.28 235.512 1154.45 282.201C1133.63 326.34 1130.59 371.079 1146.52 398.959C1151.43 407.537 1157.96 414.196 1165.88 418.766L1165.89 418.767Z" fill="white"/>
<path d="M1692.19 215.459C1694.27 216.656 1696.3 217.853 1698.31 219.054C1734.69 240.815 1758.33 261.888 1768.57 281.691C1778.35 300.609 1775.48 317.869 1760.03 332.99C1713.59 382.978 1667.4 419.676 1633.67 446.471C1620.3 457.094 1608.74 466.269 1599.83 474.162C1584.14 488.005 1554.58 496.474 1518.74 497.404C1482.14 498.352 1444.43 491.083 1415.29 477.451C1358.35 449.007 1272.87 428.561 1217.54 421.596C1200.89 419.482 1187.83 410.615 1179.77 395.955C1165.67 370.329 1168.42 329.966 1186.93 290.614C1205.46 250.684 1224.26 212.345 1250.25 182.161C1264.27 165.887 1279.26 153.176 1296.08 143.308C1314.77 132.343 1335.2 125.153 1358.54 121.317C1379.35 117.556 1412.04 119.871 1453.05 128.014C1492.09 135.766 1537.07 148.629 1579.71 164.232C1622.3 179.819 1661.01 197.457 1692.2 215.455L1692.19 215.459ZM1198.84 414.374C1204.4 417.588 1210.72 419.673 1217.67 420.557C1273.08 427.533 1358.71 448.015 1415.74 476.508C1444.73 490.066 1482.26 497.3 1518.7 496.353C1554.31 495.429 1583.62 487.053 1599.13 473.372C1608.06 465.463 1619.62 456.279 1633.01 445.645C1666.71 418.874 1712.87 382.203 1759.27 332.254C1774.37 317.474 1777.18 300.632 1767.63 282.169C1757.48 262.542 1733.97 241.61 1697.76 219.952C1665.65 200.753 1624.71 181.816 1579.35 165.222C1536.75 149.638 1491.83 136.787 1452.84 129.046C1411.95 120.927 1379.41 118.613 1358.72 122.352C1335.49 126.162 1315.18 133.313 1296.61 144.21C1279.89 154.018 1264.98 166.658 1251.04 182.841C1225.13 212.924 1206.38 251.195 1187.87 291.053C1169.5 330.106 1166.74 370.101 1180.68 395.44C1185.21 403.674 1191.35 410.039 1198.84 414.364L1198.84 414.374Z" fill="white"/>
<path d="M1673.55 231.311L1673.78 231.442C1705.94 250.034 1726.9 268.083 1736.09 285.081C1744.6 300.817 1742.62 315.226 1730.21 327.902C1691.78 373.523 1647.23 411.087 1614.7 438.513C1604.51 447.103 1595.71 454.518 1588.35 461.104C1573 474.795 1545.82 483.532 1513.8 485.08C1481.31 486.649 1446.97 480.551 1419.58 468.342C1394.84 456.299 1363.96 445.044 1327.81 434.874C1300.61 427.227 1270.94 420.447 1246.41 416.271C1232.06 413.805 1220.83 405.536 1213.94 392.348C1201.89 369.289 1204.37 333.715 1220.41 299.508C1235.8 266.06 1252.8 231.123 1276.46 203.816C1288.89 189.458 1302.19 178.201 1317.11 169.396C1333.64 159.64 1351.69 153.161 1372.26 149.591C1409.36 142.315 1488.38 156.419 1568.88 184.686C1608.83 198.715 1645.02 214.836 1673.55 231.311ZM1231.82 410.077C1236.24 412.631 1241.19 414.395 1246.57 415.321C1271.14 419.503 1300.85 426.292 1328.07 433.949C1364.28 444.133 1395.21 455.413 1419.99 467.473C1447.23 479.613 1481.4 485.685 1513.75 484.119C1545.56 482.581 1572.52 473.93 1587.71 460.387C1595.08 453.796 1603.88 446.373 1614.08 437.782C1646.58 410.378 1691.1 372.845 1729.5 327.26C1741.6 314.893 1743.52 300.868 1735.24 285.546C1726.13 268.708 1705.29 250.785 1673.3 232.284L1673.07 232.152C1644.58 215.708 1608.46 199.615 1568.56 185.606C1488.21 157.391 1409.4 143.305 1372.43 150.551C1351.97 154.102 1334.03 160.543 1317.6 170.238C1302.77 178.987 1289.55 190.18 1277.18 204.455C1253.61 231.665 1236.65 266.535 1221.28 299.921C1205.37 333.865 1202.88 369.113 1214.8 391.906C1218.95 399.854 1224.72 405.981 1231.81 410.077L1231.82 410.077Z" fill="white"/>
<path d="M1654.92 246.949C1679.72 261.265 1696.11 275.204 1703.7 288.423C1710.91 300.994 1709.81 312.556 1700.43 322.796C1669.75 365.377 1624.44 405.684 1591.36 435.119C1586.17 439.739 1581.26 444.1 1576.89 448.05C1561.63 461.805 1537.48 470.577 1508.87 472.759C1480.03 474.952 1449.85 470.152 1423.89 459.238C1406.35 450.992 1356.8 429.792 1275.28 410.945C1263.22 408.125 1253.82 400.432 1248.1 388.688C1238.14 368.205 1240.36 337.442 1253.91 308.408C1266.33 281.082 1281.37 249.886 1302.67 225.478C1325.18 199.679 1352.43 184.109 1385.99 177.869C1402.63 174.284 1428.31 175.168 1460.24 180.418C1490.65 185.421 1524.49 193.959 1558.1 205.108C1592.8 216.625 1624.35 230 1649.33 243.79C1651.24 244.844 1653.1 245.9 1654.93 246.951L1654.92 246.949ZM1264.84 405.916C1268.09 407.791 1271.65 409.189 1275.48 410.086C1288.52 413.102 1314.84 419.523 1344.6 428.661C1375.84 438.252 1402.63 448.268 1424.25 458.432C1450.06 469.286 1480.09 474.065 1508.79 471.877C1537.21 469.711 1561.18 461.019 1576.29 447.394C1580.66 443.444 1585.57 439.079 1590.76 434.455C1623.83 405.043 1669.1 364.766 1699.72 322.254L1699.75 322.214C1708.86 312.287 1709.93 301.066 1702.93 288.86C1694.98 275.009 1676.3 259.687 1648.9 244.56C1623.96 230.795 1592.47 217.443 1557.81 205.943C1524.25 194.809 1490.46 186.28 1460.09 181.282C1428.27 176.047 1402.71 175.165 1386.16 178.725C1352.79 184.927 1325.7 200.409 1303.33 226.046C1282.11 250.366 1267.1 281.495 1254.71 308.763C1241.27 337.57 1239.04 368.038 1248.89 388.29C1252.67 396.051 1258.09 402.007 1264.84 405.903L1264.84 405.916Z" fill="white"/>
<path d="M1635.68 261.906C1653.29 272.071 1665.55 282.252 1671.43 291.664C1677.34 301.118 1677.07 309.873 1670.63 317.693C1648.49 359.043 1590.28 412.264 1565.43 434.999C1534.32 463.349 1477.89 469.572 1428.2 450.132C1389.74 432.866 1341.53 417.52 1312.73 408.347C1309.67 407.373 1306.8 406.457 1304.15 405.611C1294.33 402.438 1286.74 395.273 1282.21 384.91C1274.38 367.013 1276.37 341.11 1287.4 317.301C1298.3 292.935 1310.87 267.573 1328.88 247.133C1348.1 225.323 1371.27 211.914 1399.71 206.14C1428.36 199.258 1486.32 206.844 1547.37 225.473C1576.72 234.432 1603.55 245.007 1624.95 256.053C1628.72 257.999 1632.31 259.95 1635.69 261.904L1635.68 261.906ZM1297.94 401.988C1299.96 403.157 1302.12 404.112 1304.39 404.851C1307.04 405.701 1309.91 406.614 1312.97 407.584C1341.79 416.76 1390.03 432.112 1428.51 449.392C1477.91 468.719 1533.99 462.558 1564.89 434.404C1589.72 411.696 1647.88 358.514 1669.95 317.277L1669.99 317.209C1676.21 309.676 1676.47 301.225 1670.76 292.086C1663.82 280.984 1647.85 268.768 1624.58 256.758C1603.22 245.731 1576.43 235.172 1547.13 226.23C1486.22 207.644 1428.42 200.062 1399.89 206.914C1336.72 219.732 1310.04 268.632 1288.13 317.621C1277.19 341.236 1275.2 366.891 1282.94 384.581C1286.33 392.321 1291.45 398.229 1297.94 401.978L1297.94 401.988Z" fill="white"/>
<path d="M1616.4 276.219C1627.16 282.433 1635.05 288.697 1639.34 294.662C1643.97 301.088 1644.48 307.111 1640.85 312.564C1637.93 325.615 1626.41 344.085 1606.6 367.467C1592.16 384.504 1572.98 404.358 1553.96 421.941C1523.39 450.112 1477.99 457.244 1432.5 441.019C1417.03 434.517 1400.76 428.043 1385.02 421.782C1364.66 413.683 1345.44 406.03 1333.01 400.276C1322.57 395.392 1315.68 384.75 1313.62 370.315C1311.66 356.63 1314.31 340.554 1320.89 326.197C1335.38 293.017 1346.77 278.09 1355.08 268.79C1371 250.973 1390.09 239.728 1413.43 234.414C1438 227.693 1485.21 232.015 1536.64 245.704C1569.5 254.447 1597.42 265.256 1616.4 276.215L1616.4 276.219ZM1331.12 398.487C1331.83 398.897 1332.56 399.274 1333.31 399.626C1345.72 405.376 1364.93 413.022 1385.28 421.116C1401.02 427.379 1417.3 433.859 1432.76 440.355C1477.97 456.48 1523.11 449.406 1553.47 421.418C1572.47 403.851 1591.63 384.022 1606.05 367.007C1625.82 343.676 1637.3 325.28 1640.16 312.345L1640.18 312.279L1640.21 312.223C1643.7 307.031 1643.21 301.266 1638.77 295.081C1626.99 278.714 1587.79 260.06 1536.46 246.4C1485.15 232.741 1438.07 228.415 1413.61 235.109C1390.41 240.39 1371.44 251.564 1355.62 269.266C1339.87 286.892 1329.13 309.104 1321.55 326.487C1315.02 340.727 1312.39 356.662 1314.33 370.212C1316.21 383.362 1322.14 393.297 1331.12 398.483L1331.12 398.487Z" fill="white"/>
<path d="M1596.96 289.249C1601.41 291.818 1604.93 294.392 1607.37 296.905C1610.93 300.584 1612.17 304.102 1611.06 307.367C1615.54 318.226 1602.85 338.987 1591.39 354.515C1578.47 372.028 1560.19 392.352 1542.49 408.893C1527.24 423.108 1511.41 431.906 1494.08 435.792C1476.39 439.76 1457.66 438.491 1436.81 431.917C1406.18 420.315 1376.77 405.796 1361.86 394.925C1354.62 389.598 1349.99 380.242 1348.8 368.588C1347.69 357.685 1349.72 345.477 1354.38 335.097C1366.05 307.315 1384.87 273.983 1427.15 262.693C1447.47 256.175 1484.24 257.262 1525.5 265.613C1555.66 271.714 1581.72 280.454 1596.96 289.251L1596.96 289.249ZM1375.65 402.986C1391.62 412.209 1413.97 422.59 1437.01 431.317C1457.73 437.854 1476.36 439.115 1493.94 435.174C1511.15 431.315 1526.89 422.569 1542.05 408.431C1575.13 377.524 1618.22 325.776 1610.43 307.503L1610.38 307.39L1610.42 307.274C1611.51 304.224 1610.33 300.886 1606.91 297.35C1596.22 286.306 1564.21 274.094 1525.37 266.235C1484.21 257.905 1447.55 256.806 1427.32 263.303C1385.29 274.525 1366.57 307.702 1354.95 335.351L1354.95 335.359C1350.33 345.642 1348.31 357.737 1349.42 368.534C1350.58 380.011 1355.14 389.204 1362.23 394.425C1365.89 397.094 1370.43 399.982 1375.64 402.994L1375.65 402.986Z" fill="white"/>
<path d="M1577.14 298.806C1579.06 299.914 1580.41 301.022 1581.12 302.108C1584.59 303.493 1586.7 306.031 1587.4 309.641C1589.45 320.207 1579.22 337.685 1570.27 350.494C1559.62 365.731 1544.94 382.68 1531.01 395.838C1515.24 410.714 1502.33 419.233 1489.14 423.462C1475.08 427.972 1459.81 427.762 1441.09 422.805C1420.24 416.238 1400.46 403.184 1390.7 389.549C1381.98 377.266 1382.41 356.741 1387.86 343.995C1398.32 317.194 1416.15 299.353 1440.85 290.972C1450.39 287.219 1463.2 284.953 1478.89 284.231C1492.48 283.608 1507.85 284.194 1523.36 285.937C1547.64 288.66 1568.32 293.725 1577.13 298.811L1577.14 298.806ZM1580.75 302.55L1580.71 302.475C1580.05 301.415 1578.73 300.336 1576.86 299.255C1557.47 288.06 1478.01 276.96 1441.05 291.484C1416.5 299.816 1398.78 317.547 1388.38 344.197L1388.38 344.205C1382.98 356.813 1382.55 377.103 1391.16 389.232C1400.86 402.777 1420.53 415.751 1441.26 422.283C1459.86 427.209 1475.03 427.424 1488.99 422.947C1502.09 418.744 1514.94 410.263 1530.65 395.447C1544.56 382.312 1559.2 365.392 1569.83 350.183C1578.72 337.462 1588.89 320.124 1586.88 309.751C1586.21 306.308 1584.18 303.897 1580.84 302.591L1580.76 302.559L1580.75 302.55Z" fill="white"/>
<path d="M1561.63 299.051C1563.55 300.16 1564.94 301.722 1565.79 303.739C1567.91 308.786 1567.62 319.286 1554.17 340.631C1545.16 354.94 1532.22 370.696 1519.56 382.783C1504.59 397.067 1494.75 406.105 1484.23 411.126C1473.36 416.321 1462.11 417.067 1445.42 413.688C1436.21 411.826 1429.26 406.985 1424.76 399.304C1415.02 382.689 1419.69 358.094 1421.36 352.896C1424.49 343.186 1431.46 334.407 1442.09 326.801C1451.24 320.255 1463.1 314.555 1477.35 309.853C1503.12 301.358 1532.37 297.667 1551.15 297.044C1555.57 296.899 1559.07 297.57 1561.63 299.047L1561.63 299.051ZM1435.61 409.588C1438.54 411.278 1441.84 412.497 1445.51 413.237C1462.09 416.591 1473.26 415.861 1484.04 410.711C1494.49 405.714 1504.31 396.704 1519.24 382.449C1542.32 360.412 1572.03 319.765 1565.36 303.916C1563.47 299.415 1558.69 297.261 1551.17 297.51C1532.42 298.13 1503.23 301.814 1477.5 310.298C1463.29 314.983 1451.47 320.663 1442.36 327.185C1431.82 334.731 1424.91 343.431 1421.81 353.041C1420.14 358.198 1415.51 382.609 1425.16 399.073C1427.81 403.58 1431.31 407.096 1435.62 409.589L1435.61 409.588Z" fill="white"/>
</g>
</g>
<defs>
<linearGradient id="paint0_linear_244_1409" x1="0" y1="0" x2="1518.7" y2="209.261" gradientUnits="userSpaceOnUse">
<stop stop-color="#33383F"/>
<stop offset="1.0001"/>
</linearGradient>
<clipPath id="clip0_244_1409">
<rect width="1440" height="708" fill="white"/>
</clipPath>
</defs>
</svg>
